<?xml version="1.0" standalone="no"?>
<!DOCTYPE svg PUBLIC "-//W3C//DTD SVG 20010904//EN"
 "http://www.w3.org/TR/2001/REC-SVG-20010904/DTD/svg10.dtd">
<svg version="1.0" xmlns="http://www.w3.org/2000/svg"
 width="700.000000pt" height="700.000000pt" viewBox="0 0 700.000000 700.000000"
 preserveAspectRatio="xMidYMid meet">
<metadata>
Created by potrace 1.14, written by Peter Selinger 2001-2017
</metadata>
<g transform="translate(0.000000,700.000000) scale(0.100000,-0.100000)"
fill="#000000" stroke="none">
<path d="M5006 6093 c-2 -3 -64 -5 -138 -5 -73 0 -139 -5 -145 -10 -9 -7 -13
-7 -13 0 0 11 -18 11 -36 -1 -6 -3 -14 -3 -18 0 -10 11 -46 11 -46 0 0 -5 -6
-4 -13 2 -8 6 -17 8 -21 4 -3 -4 -32 -8 -64 -9 -31 -2 -104 -6 -162 -10 -58
-4 -129 -7 -157 -8 -29 0 -53 -4 -53 -7 0 -3 -19 -5 -42 -3 -23 1 -50 -2 -60
-7 -13 -7 -18 -6 -18 3 0 8 -3 9 -8 3 -4 -6 -29 -11 -57 -12 -47 -2 -168 -12
-225 -19 -14 -2 -50 -6 -80 -8 -30 -3 -89 -10 -130 -15 -41 -6 -95 -12 -120
-14 -25 -1 -50 -6 -56 -9 -6 -4 -25 -5 -42 -3 -17 2 -34 0 -36 -4 -3 -4 -31
-9 -62 -10 -32 -1 -62 -5 -67 -8 -5 -3 -33 -7 -62 -8 -30 -2 -58 -5 -62 -8 -5
-3 -38 -9 -73 -13 -36 -3 -71 -11 -77 -17 -9 -6 -13 -6 -13 2 0 7 -5 9 -12 5
-10 -7 -22 -9 -88 -19 -14 -2 -41 -7 -60 -10 -19 -4 -46 -8 -60 -10 -14 -2
-34 -6 -45 -8 -11 -3 -54 -10 -95 -17 -41 -7 -83 -16 -92 -22 -12 -6 -18 -5
-18 3 0 8 -4 8 -14 0 -8 -7 -34 -14 -58 -17 -24 -2 -73 -10 -109 -18 -36 -8
-77 -17 -90 -20 -13 -2 -44 -9 -69 -15 -24 -5 -46 -8 -49 -6 -2 3 -9 1 -15 -4
-6 -5 -24 -12 -41 -14 -16 -3 -41 -8 -55 -11 -14 -3 -59 -13 -100 -22 -41 -9
-79 -19 -85 -23 -5 -3 -12 -6 -15 -7 -3 0 -26 -4 -53 -8 -26 -5 -47 -11 -47
-15 0 -4 -10 -8 -22 -8 -23 -2 -59 -11 -208 -54 -41 -11 -80 -22 -87 -23 -7
-1 -16 -5 -19 -9 -4 -4 -18 -7 -31 -7 -13 0 -23 -4 -23 -9 0 -6 -9 -8 -20 -6
-11 2 -20 0 -20 -4 0 -5 -17 -12 -37 -16 -21 -4 -44 -11 -50 -17 -7 -6 -13 -8
-13 -5 0 3 -44 -11 -97 -30 -54 -19 -104 -35 -110 -36 -7 0 -13 -4 -13 -9 0
-4 -8 -8 -18 -8 -10 0 -28 -8 -41 -17 -14 -9 -21 -12 -18 -5 4 6 -10 2 -30 -8
-21 -10 -49 -23 -63 -28 -103 -42 -197 -87 -210 -101 -16 -17 -20 -54 -7 -67
11 -12 37 -14 37 -3 0 5 5 9 11 9 6 0 41 14 78 32 36 18 68 33 71 33 3 0 27
11 54 23 27 12 50 22 52 22 1 0 15 5 31 12 15 6 30 12 33 13 6 2 58 23 80 32
8 3 20 7 25 9 6 1 48 17 95 34 47 18 90 33 95 34 6 2 17 5 25 9 8 3 56 17 105
32 50 16 97 30 105 33 8 3 20 6 25 7 6 0 15 4 21 7 6 4 21 9 35 12 13 4 58 15
99 27 41 11 80 22 85 23 6 2 17 6 25 9 43 16 77 24 92 21 10 -1 18 1 18 5 0 4
6 8 13 9 16 1 67 11 89 18 23 7 45 12 111 26 32 7 56 15 54 18 -3 3 9 6 26 7
36 2 63 7 122 23 22 6 52 12 67 15 14 2 62 12 105 21 43 9 89 17 103 18 14 1
27 4 30 8 3 4 25 8 48 9 23 2 42 7 42 12 0 4 4 6 9 3 5 -4 21 -2 35 4 17 6 27
6 32 -1 4 -7 10 -7 18 0 12 10 76 23 236 47 25 4 51 11 58 17 8 6 12 6 12 -2
0 -7 5 -9 11 -6 12 8 49 14 107 19 23 2 45 6 49 10 3 3 25 6 48 6 23 0 45 3
48 7 7 7 79 15 149 17 21 1 38 4 38 9 0 4 20 7 45 7 27 0 45 5 45 11 0 8 4 9
13 0 8 -6 16 -9 18 -6 3 2 29 7 58 10 30 3 56 7 60 9 8 5 167 19 200 17 12 0
28 2 33 6 6 3 37 7 69 9 33 1 63 5 68 9 5 3 12 1 16 -5 4 -6 12 -7 24 -1 10 6
62 13 117 17 54 4 108 7 119 8 11 1 26 5 33 9 6 5 12 4 12 0 0 -5 9 -9 20 -10
11 -1 19 1 16 5 -2 4 28 8 67 9 40 1 115 4 167 8 345 22 1252 23 1288 1 7 -4
12 -2 12 4 0 6 4 8 10 5 5 -3 40 -8 77 -11 38 -3 82 -6 100 -8 37 -4 63 8 48
23 -15 14 -62 22 -132 21 -35 0 -63 3 -63 7 0 5 -20 8 -45 9 -25 0 -45 -4 -45
-8 0 -5 -4 -6 -10 -3 -5 3 -19 8 -30 10 -37 7 -258 7 -269 1 -6 -4 -11 -3 -11
3 0 10 -514 14 -524 4z"/>
<path d="M4906 5963 c-4 -4 -48 -9 -99 -10 -51 -2 -119 -5 -152 -8 -33 -3 -97
-7 -142 -8 -46 -1 -83 -4 -83 -7 0 -3 -42 -6 -93 -8 -50 -2 -126 -6 -167 -10
-41 -4 -92 -7 -112 -7 -21 0 -38 -2 -38 -5 0 -3 -19 -6 -42 -6 -24 -1 -56 -4
-73 -7 -16 -3 -66 -8 -110 -12 -44 -3 -98 -8 -120 -11 -22 -4 -53 -8 -70 -10
-58 -6 -120 -14 -160 -19 -22 -3 -60 -7 -85 -8 -25 -1 -49 -5 -55 -9 -5 -3
-41 -9 -80 -13 -68 -7 -97 -10 -160 -21 -16 -2 -47 -6 -68 -9 -21 -2 -48 -7
-60 -11 -12 -4 -35 -8 -52 -10 -33 -3 -56 -6 -155 -24 -106 -19 -123 -21 -157
-23 -17 -1 -29 -5 -26 -9 2 -5 -12 -9 -31 -9 -35 -1 -53 -4 -58 -9 -2 -1 -12
-3 -23 -5 -11 -1 -36 -5 -55 -9 -19 -4 -51 -9 -70 -13 -19 -3 -43 -10 -54 -15
-14 -8 -17 -7 -10 4 6 10 5 11 -7 2 -8 -6 -22 -10 -31 -9 -10 2 -18 0 -18 -4
0 -5 -28 -13 -62 -19 -74 -14 -223 -48 -223 -52 0 -1 -11 -3 -25 -5 -21 -3
-49 -9 -130 -29 -8 -2 -44 -12 -80 -21 -36 -10 -71 -18 -77 -18 -7 0 -13 -5
-13 -10 0 -6 -3 -8 -6 -4 -3 3 -26 0 -50 -8 -24 -7 -44 -11 -44 -8 0 3 -6 1
-13 -5 -10 -9 -70 -28 -117 -37 -8 -2 -15 -4 -15 -5 0 -1 -7 -3 -15 -5 -8 -2
-34 -10 -58 -19 -23 -8 -43 -15 -45 -15 -1 0 -15 -4 -30 -10 -16 -6 -37 -11
-48 -11 -10 0 -19 -3 -19 -8 0 -4 -23 -13 -52 -20 -28 -6 -54 -15 -57 -19 -3
-5 -14 -9 -25 -11 -10 -2 -30 -8 -45 -14 -14 -6 -31 -12 -37 -13 -10 -3 -63
-24 -164 -68 -14 -6 -27 -11 -30 -12 -3 -1 -18 -7 -33 -13 -16 -7 -33 -12 -38
-12 -5 0 -9 -4 -9 -10 0 -5 -3 -9 -7 -8 -5 1 -21 -5 -38 -12 -16 -7 -33 -13
-37 -12 -5 1 -8 -3 -8 -8 0 -6 -9 -10 -20 -10 -11 0 -20 -4 -20 -10 0 -5 -6
-10 -14 -10 -8 0 -23 -11 -34 -24 -15 -20 -19 -39 -17 -103 1 -43 7 -91 13
-106 7 -16 12 -30 12 -33 0 -16 50 -69 80 -84 43 -22 51 -24 59 -13 8 11 113
63 129 63 6 0 12 4 12 10 0 5 3 9 8 8 8 -1 44 13 112 44 25 11 54 24 65 29 11
4 40 17 65 27 25 11 62 25 82 31 21 7 40 17 43 22 4 5 17 9 31 9 13 0 24 5 24
11 0 5 4 8 9 5 5 -3 22 1 37 9 16 8 37 15 47 15 9 0 17 5 17 11 0 5 4 8 9 5 5
-3 23 1 40 10 18 9 40 17 49 19 9 2 18 4 20 5 1 2 5 3 10 5 4 1 15 5 25 8 20
8 46 16 50 16 1 0 29 10 62 22 33 12 67 22 75 23 8 1 24 7 35 13 11 6 23 11
28 12 4 1 9 2 12 2 3 1 10 3 15 4 6 1 12 4 15 5 3 1 8 3 13 4 4 2 27 8 52 15
25 7 50 14 55 15 6 1 16 5 23 9 6 5 17 5 22 2 6 -3 10 -2 10 3 0 5 21 14 48
20 26 5 112 28 191 51 79 22 147 38 152 36 4 -3 9 -2 11 2 3 8 122 42 171 48
15 2 33 7 39 11 7 4 22 9 33 10 12 1 39 7 61 13 36 9 79 19 114 25 8 2 22 6
30 9 24 8 273 60 290 60 8 0 17 4 20 8 3 4 25 10 50 13 25 2 45 5 45 6 0 1 14
3 30 6 37 5 70 12 70 14 0 1 14 4 30 6 17 3 37 7 45 10 8 4 33 8 55 11 63 7
79 9 95 16 8 3 33 9 55 12 22 3 51 8 65 10 14 2 41 7 60 9 19 3 58 10 85 16
45 9 87 15 165 25 14 1 32 5 40 9 20 7 116 18 158 18 18 -1 30 3 27 9 -3 5 4
8 17 8 27 -1 126 9 159 17 13 3 48 7 77 9 29 1 56 5 59 9 4 3 26 6 50 6 24 0
43 3 43 8 0 4 33 8 73 10 77 3 152 9 152 13 0 1 16 3 35 5 19 2 62 6 95 9 90
9 141 13 235 19 47 3 104 8 127 12 23 3 83 7 133 9 50 3 95 7 100 10 5 3 11 1
15 -5 4 -6 11 -7 18 -3 6 3 108 8 226 9 119 1 218 6 219 10 2 5 7 14 12 19 4
6 8 25 8 43 1 35 -23 53 -62 46 -11 -2 -26 2 -35 9 -12 10 -13 9 -7 -2 7 -10
3 -11 -15 -5 -26 8 -848 13 -864 5 -18 -9 -95 -9 -89 0 6 11 0 12 -10 2z"/>
<path d="M501 4550 c-11 -7 -23 -56 -27 -105 -1 -22 -5 -51 -8 -64 -3 -13 -8
-49 -11 -80 -4 -31 -9 -67 -12 -81 -2 -14 -6 -38 -8 -55 -2 -16 -5 -46 -8 -65
-3 -19 -8 -57 -12 -85 -4 -27 -9 -61 -11 -75 -3 -14 -7 -38 -8 -55 -2 -16 -9
-68 -16 -115 -7 -47 -13 -101 -15 -120 -1 -19 -5 -42 -8 -50 -3 -8 -5 -22 -5
-30 0 -17 -10 -90 -19 -140 -3 -19 -7 -48 -9 -65 -1 -16 -3 -30 -4 -30 -1 0
-3 -13 -5 -30 -5 -43 -24 -176 -30 -204 -2 -13 -7 -48 -10 -76 -2 -29 -8 -70
-11 -91 -4 -22 -8 -52 -10 -69 -1 -16 -3 -30 -4 -30 -1 0 -4 -13 -5 -30 -8
-73 -22 -170 -25 -170 -1 0 -3 -18 -5 -40 -2 -22 -6 -51 -9 -65 -2 -14 -7 -51
-11 -83 l-8 -57 364 2 364 3 2 25 c1 14 4 36 7 50 3 13 7 39 8 57 1 18 5 33 8
33 3 0 6 12 6 28 2 47 12 136 18 162 3 14 8 43 10 65 3 22 8 51 11 65 3 14 7
51 10 83 3 32 7 68 10 80 9 42 16 82 21 137 3 30 11 61 16 68 7 8 7 12 0 12
-6 0 -7 13 -2 34 4 19 5 37 2 40 -3 4 -1 6 4 6 5 0 10 12 10 28 2 40 15 144
21 165 3 11 7 38 9 60 2 23 6 53 9 67 3 14 8 52 11 85 4 33 9 64 12 69 2 5 7
32 9 60 7 84 11 121 13 121 2 0 7 28 15 90 3 28 8 61 10 75 2 14 7 51 11 83 6
49 10 57 28 58 27 1 417 1 434 0 10 -1 12 -12 8 -43 -3 -24 -8 -63 -12 -88 -3
-25 -7 -56 -9 -70 -2 -14 -9 -59 -15 -100 -18 -122 -20 -143 -24 -190 -2 -25
-6 -52 -9 -60 -3 -8 -8 -37 -11 -65 -3 -27 -8 -66 -11 -85 -8 -50 -13 -86 -21
-160 -4 -36 -10 -69 -13 -75 -4 -5 -7 -29 -7 -52 1 -24 -2 -43 -6 -43 -4 0 -6
-8 -6 -17 0 -10 -3 -49 -7 -88 -4 -38 -8 -76 -8 -82 0 -7 -3 -13 -7 -13 -4 0
-7 -15 -8 -32 -2 -63 -14 -156 -23 -173 -2 -5 -4 -27 -4 -47 1 -21 -2 -38 -5
-38 -3 0 -6 -10 -6 -22 -1 -31 -15 -148 -21 -173 -3 -11 -6 -36 -8 -55 -2 -19
-4 -35 -5 -35 -1 0 -4 -24 -7 -52 l-4 -53 359 0 c401 0 372 -5 372 71 0 21 3
39 8 39 4 0 7 17 7 38 -1 20 2 49 6 64 4 15 9 44 10 65 1 21 5 42 8 48 3 5 6
27 7 50 1 22 3 42 4 45 2 3 4 14 5 25 2 21 13 100 21 150 3 17 6 47 7 68 1 20
4 37 8 37 3 0 6 10 6 23 0 24 12 126 20 167 2 14 6 41 9 60 2 19 6 49 8 65 2
17 7 57 11 90 4 33 12 68 17 79 8 14 7 17 -3 11 -8 -5 -10 -4 -5 3 9 15 14 39
21 111 4 31 9 64 12 75 3 10 7 35 9 55 2 20 6 50 8 66 2 17 7 59 11 95 4 36
12 68 19 72 8 6 7 8 -2 8 -7 0 -10 5 -6 11 4 6 8 24 10 40 2 16 6 41 8 57 2
15 7 52 10 82 4 30 9 66 11 80 6 29 13 79 21 160 l6 55 -952 0 c-523 0 -955
-2 -959 -5z"/>
<path d="M2682 4545 c-4 -5 -7 -18 -8 -27 -1 -10 -3 -19 -4 -20 -1 -2 -4 -19
-6 -38 -3 -39 -11 -98 -21 -150 -3 -19 -7 -47 -7 -62 0 -16 -3 -28 -7 -28 -3
0 -6 -10 -6 -22 2 -42 -15 -168 -22 -164 -3 2 -6 -10 -5 -27 0 -18 -7 -88 -17
-156 -10 -69 -16 -127 -13 -130 10 -11 716 -7 722 4 3 5 7 24 7 41 1 17 4 35
7 40 2 5 6 29 7 54 2 25 5 48 7 52 3 4 7 29 10 55 3 26 7 57 8 68 10 85 23
170 26 170 1 0 3 20 5 44 2 24 7 46 9 49 3 3 110 5 237 6 l231 1 -7 -40 c-3
-22 -8 -53 -10 -70 -2 -16 -6 -41 -8 -55 -3 -14 -8 -52 -12 -85 -4 -32 -9 -68
-11 -80 -3 -11 -6 -33 -9 -50 -2 -16 -9 -64 -15 -105 -6 -41 -11 -87 -11 -102
1 -16 -2 -28 -7 -28 -4 0 -7 -18 -6 -41 1 -26 -3 -42 -11 -45 -7 -3 -278 -6
-601 -7 l-588 -2 -8 -45 c-5 -25 -9 -61 -11 -80 -2 -19 -6 -40 -10 -47 -4 -6
-7 -22 -6 -34 1 -38 -15 -164 -21 -164 -1 0 -3 -18 -5 -40 -1 -22 -3 -40 -5
-40 -1 0 -3 -18 -6 -40 -2 -22 -9 -71 -14 -110 -6 -38 -13 -86 -15 -105 -2
-19 -7 -55 -11 -80 -4 -25 -8 -55 -8 -67 -1 -13 -4 -23 -7 -23 -3 0 -4 -16 -3
-35 2 -19 0 -35 -4 -35 -4 0 -8 -15 -8 -32 -1 -18 -4 -52 -7 -75 -4 -24 -10
-62 -13 -85 -3 -24 -6 -47 -7 -53 -1 -7 326 -11 960 -13 l961 -2 6 27 c2 16 8
51 11 78 3 28 8 62 10 76 3 14 7 43 10 65 10 82 22 157 25 162 1 1 2 22 3 47
0 25 4 45 7 45 4 0 7 15 8 33 0 17 6 64 12 102 14 91 21 144 23 175 l2 25
-362 3 -361 2 -8 -42 c-4 -24 -8 -55 -8 -70 0 -16 -2 -28 -6 -28 -4 0 -8 -17
-9 -37 -1 -21 -6 -65 -12 -98 -5 -33 -12 -78 -14 -100 -2 -22 -9 -71 -15 -110
-7 -38 -12 -78 -12 -87 1 -17 -17 -18 -239 -18 -157 0 -238 3 -234 10 9 14 26
137 28 198 0 6 3 12 6 12 4 0 7 17 8 38 1 20 4 53 7 72 3 19 8 49 10 65 2 17
5 30 6 30 1 0 3 18 4 40 2 22 4 41 6 43 1 1 3 10 4 20 8 68 18 140 21 157 4
21 8 21 600 20 327 0 596 3 596 8 2 13 6 27 9 30 1 1 3 13 5 27 8 82 16 138
20 160 3 14 6 40 7 58 1 17 4 32 7 32 3 0 7 19 8 43 3 69 15 162 22 167 3 3 6
24 6 48 -1 23 2 42 5 42 3 0 6 10 6 23 1 41 20 182 24 182 1 0 3 18 4 40 2 22
5 47 9 55 3 8 8 44 11 80 4 36 9 79 12 95 4 17 7 50 8 75 l1 45 -953 0 c-628
0 -956 -3 -960 -10z"/>
<path d="M4854 4548 c-2 -4 -7 -26 -10 -50 -2 -24 -7 -59 -11 -78 -4 -19 -8
-46 -9 -60 -11 -102 -17 -139 -23 -165 -4 -16 -7 -42 -6 -57 1 -16 -1 -28 -5
-28 -4 0 -8 -17 -8 -37 -1 -21 -6 -67 -11 -103 -17 -108 -25 -165 -37 -265 -9
-80 -9 -79 -15 -90 -3 -5 -5 -27 -5 -47 1 -21 -2 -38 -7 -38 -4 0 -7 -6 -6
-12 5 -23 -13 -152 -22 -170 -7 -12 -6 -18 2 -18 8 0 8 -4 2 -12 -6 -7 -10
-20 -10 -28 -1 -23 -13 -121 -20 -160 -4 -19 -7 -44 -7 -55 -1 -11 -4 -24 -7
-30 -3 -5 -6 -28 -8 -50 -1 -22 -7 -69 -12 -105 -6 -36 -12 -81 -14 -100 -2
-19 -6 -44 -8 -55 -7 -32 -21 -148 -20 -167 0 -10 -3 -18 -6 -18 -4 0 -8 -12
-8 -27 0 -16 -3 -52 -7 -80 l-7 -53 366 0 c287 0 365 3 363 13 -1 6 2 30 6 52
7 35 12 67 21 140 3 30 16 116 22 155 3 19 7 49 8 65 2 17 6 41 9 55 4 14 8
50 11 80 2 30 7 66 10 80 8 36 14 78 20 135 3 28 8 61 11 75 3 14 7 41 8 60 2
19 5 35 6 35 1 0 4 14 5 30 6 57 17 140 22 165 3 14 5 40 6 58 1 17 4 32 7 32
4 0 6 15 5 33 -1 17 1 36 4 42 3 5 7 28 9 50 4 44 9 80 13 80 1 0 3 11 4 25 5
60 17 146 21 163 3 10 7 39 9 65 3 26 7 58 10 72 6 28 18 118 18 138 0 15 -13
14 237 16 196 1 247 -4 235 -24 -3 -5 -8 -26 -10 -47 -3 -21 -8 -56 -12 -78
-3 -22 -8 -51 -9 -65 -2 -14 -6 -41 -9 -60 -21 -142 -33 -231 -37 -280 l-3
-35 362 0 362 0 7 45 c3 25 8 56 10 70 8 43 12 72 19 148 4 39 10 72 14 72 3
0 7 21 8 48 0 26 3 58 6 72 3 14 9 52 13 85 4 33 8 67 10 75 5 32 15 107 20
150 2 25 6 51 9 58 2 6 -1 13 -8 13 -51 6 -1910 2 -1913 -3z"/>
<path d="M6600 2319 c0 -5 -11 -11 -25 -15 -14 -3 -25 -10 -25 -15 0 -5 -5 -9
-11 -9 -7 0 -50 -18 -97 -40 -46 -22 -95 -43 -108 -46 -13 -4 -27 -10 -30 -15
-3 -5 -10 -7 -15 -4 -5 4 -9 1 -9 -4 0 -6 -3 -10 -7 -9 -5 0 -24 -6 -43 -15
-19 -8 -38 -13 -42 -11 -5 3 -8 0 -8 -5 0 -6 -4 -11 -9 -11 -5 0 -22 -5 -38
-12 -15 -6 -31 -12 -35 -12 -3 -1 -10 -4 -14 -8 -4 -5 -13 -8 -19 -8 -7 0 -34
-10 -61 -22 -27 -12 -53 -22 -59 -23 -18 -1 -120 -37 -132 -47 -7 -5 -17 -7
-23 -3 -5 3 -10 2 -10 -3 0 -9 -55 -26 -72 -23 -5 0 -8 -4 -8 -11 0 -6 -3 -9
-6 -6 -3 4 -38 -5 -77 -19 -77 -26 -105 -34 -124 -35 -7 -1 -13 -5 -13 -9 0
-4 -9 -6 -20 -4 -11 2 -20 0 -20 -6 0 -5 -11 -9 -24 -9 -14 0 -28 -5 -31 -10
-4 -6 -11 -8 -16 -4 -5 3 -15 1 -22 -4 -7 -6 -29 -13 -49 -17 -21 -4 -38 -10
-38 -14 0 -4 -10 -7 -22 -6 -13 1 -29 -2 -35 -8 -7 -5 -13 -6 -13 -2 0 4 -6 3
-12 -2 -13 -10 -86 -28 -100 -25 -5 1 -8 -3 -8 -10 0 -6 -3 -9 -6 -6 -3 4 -35
-2 -71 -13 -36 -10 -69 -16 -74 -14 -4 3 -9 1 -11 -4 -1 -5 -19 -12 -38 -15
-49 -9 -53 -11 -67 -19 -7 -5 -13 -6 -13 -2 0 3 -9 1 -20 -5 -15 -8 -20 -8
-20 2 0 9 -3 9 -8 2 -6 -10 -67 -30 -117 -38 -11 -2 -40 -9 -65 -16 -25 -7
-55 -12 -67 -12 -13 0 -23 -3 -23 -7 0 -4 -6 -8 -12 -8 -13 -1 -51 -8 -98 -18
-14 -3 -36 -8 -50 -11 -14 -3 -45 -10 -70 -16 -25 -6 -54 -12 -65 -13 -11 -2
-38 -7 -60 -13 -38 -10 -88 -20 -130 -26 -11 -2 -31 -6 -45 -9 -14 -3 -54 -11
-90 -18 -36 -6 -73 -16 -82 -21 -11 -5 -18 -5 -18 1 0 7 -8 7 -22 1 -34 -14
-128 -31 -138 -25 -5 3 -12 0 -15 -6 -4 -5 -14 -8 -22 -5 -9 4 -23 1 -31 -6
-13 -11 -14 -11 -7 2 7 12 6 13 -6 4 -12 -10 -76 -24 -119 -25 -8 0 -22 -3
-30 -6 -8 -3 -24 -6 -35 -8 -67 -6 -132 -19 -142 -27 -9 -7 -13 -7 -13 0 0 11
-18 11 -36 0 -5 -4 -19 -5 -30 -4 -10 2 -24 0 -29 -5 -6 -4 -49 -11 -95 -14
-47 -4 -89 -10 -95 -14 -5 -4 -28 -7 -50 -7 -22 1 -43 -3 -47 -9 -5 -6 -12 -4
-18 5 -5 8 -10 10 -10 4 0 -10 -84 -23 -175 -29 -5 0 -16 -4 -22 -8 -8 -5 -13
-3 -13 3 0 6 -5 8 -12 4 -7 -5 -26 -9 -43 -10 -16 0 -43 -4 -60 -7 -16 -4 -66
-9 -110 -13 -107 -8 -154 -12 -193 -18 -21 -4 -32 -2 -32 7 0 7 -3 8 -8 2 -10
-14 -29 -18 -90 -16 -29 1 -58 -2 -65 -6 -6 -4 -43 -6 -80 -5 -38 2 -66 -1
-64 -5 3 -4 -54 -8 -126 -8 -73 0 -138 -3 -145 -8 -6 -5 -12 -6 -12 -1 0 10
-182 10 -199 0 -6 -4 -11 -3 -11 1 0 5 -12 8 -26 8 -33 -2 -55 -30 -50 -62 3
-13 0 -23 -5 -23 -6 0 -3 -8 7 -17 9 -10 35 -18 58 -19 22 -1 41 -3 41 -4 0
-6 854 -5 878 1 16 5 27 4 27 -2 0 -6 6 -7 13 -2 19 12 57 11 57 -1 0 -7 3 -8
8 -1 7 11 40 13 194 15 54 0 98 4 98 8 0 4 38 7 85 6 47 0 85 2 85 5 0 3 42 7
93 8 50 1 108 4 127 7 42 6 199 19 257 20 24 1 43 4 43 7 0 4 15 7 33 7 17 0
61 3 97 7 36 3 88 8 115 10 28 2 50 4 50 5 0 2 9 4 20 5 84 10 136 16 170 21
22 3 54 6 70 8 17 1 36 6 44 10 10 7 12 5 6 -4 -6 -10 -4 -11 6 -4 16 10 25
11 89 18 25 3 46 6 48 7 1 1 16 3 32 4 17 1 31 4 33 5 2 2 15 4 97 14 25 3 59
9 75 12 17 4 44 8 60 10 17 1 30 3 30 5 0 1 14 2 30 3 17 1 35 5 40 8 10 6
103 20 143 21 12 1 22 5 22 9 0 4 10 6 23 4 12 -2 28 1 35 7 7 5 15 7 18 5 3
-3 22 -1 42 4 32 8 63 13 122 22 9 1 20 5 25 8 6 3 26 7 45 9 19 2 41 8 49 13
12 9 13 8 6 -4 -8 -13 -7 -13 8 -1 9 7 17 10 17 7 0 -4 8 -2 18 3 11 6 41 13
68 17 27 3 55 11 63 18 12 9 13 8 6 -3 -6 -11 -5 -12 6 -5 8 5 17 9 22 10 4 1
9 3 12 4 6 3 4 2 60 15 22 5 47 9 55 10 8 1 22 4 30 7 17 7 95 27 125 32 11 3
47 12 80 21 33 9 67 18 75 20 8 2 49 14 90 25 41 12 83 23 93 25 9 2 22 7 27
10 5 3 20 8 32 11 28 6 39 9 58 17 20 8 93 30 105 33 6 1 24 8 40 15 17 7 37
13 45 14 8 1 26 6 40 12 14 6 50 19 80 29 30 11 58 23 61 27 3 5 8 8 10 7 7
-3 64 12 74 20 16 11 109 45 118 42 4 -1 7 2 7 7 0 5 10 13 23 16 12 4 68 28
124 53 121 55 131 69 129 177 -2 97 -43 180 -106 216 -29 16 -60 20 -60 8z"/>
<path d="M6705 1860 c-3 -5 -15 -10 -26 -10 -10 0 -19 -5 -19 -10 0 -6 -20
-15 -45 -22 -25 -7 -45 -16 -45 -20 0 -4 -6 -8 -12 -8 -7 0 -24 -6 -38 -13
-14 -7 -63 -28 -110 -46 -47 -18 -94 -37 -105 -42 -56 -24 -129 -48 -136 -44
-4 3 -9 1 -11 -5 -1 -5 -12 -11 -23 -13 -11 -2 -27 -7 -35 -10 -83 -31 -133
-46 -141 -42 -5 4 -9 2 -9 -3 0 -8 -27 -17 -65 -22 -2 -1 -20 -7 -39 -15 -18
-8 -48 -17 -67 -20 -18 -3 -37 -9 -43 -13 -6 -3 -18 -7 -26 -9 -15 -2 -32 -6
-140 -38 -31 -8 -69 -18 -85 -21 -15 -3 -36 -9 -46 -15 -10 -5 -22 -8 -26 -7
-4 1 -60 -11 -123 -26 -63 -15 -124 -30 -135 -33 -11 -3 -42 -9 -70 -14 -27
-6 -57 -13 -65 -16 -8 -3 -22 -7 -30 -8 -52 -5 -111 -18 -115 -25 -3 -5 -14
-6 -25 -3 -12 3 -20 0 -20 -7 0 -10 -3 -10 -14 -1 -10 8 -16 9 -21 1 -4 -6
-12 -10 -18 -8 -7 1 -21 -1 -32 -4 -11 -4 -38 -10 -60 -13 -22 -4 -51 -9 -65
-11 -14 -3 -34 -6 -45 -7 -11 -1 -26 -6 -32 -10 -8 -5 -13 -3 -13 5 0 10 -2
10 -8 1 -7 -11 -73 -25 -114 -24 -10 0 -18 -5 -18 -11 0 -7 -5 -6 -14 1 -8 7
-17 8 -20 3 -3 -5 -31 -13 -62 -17 -31 -4 -68 -9 -83 -12 -14 -3 -42 -6 -61
-8 -19 -2 -35 -4 -35 -5 0 -2 -29 -7 -90 -15 -27 -4 -61 -8 -75 -10 -14 -2
-47 -7 -75 -10 -27 -3 -81 -10 -120 -15 -38 -6 -90 -12 -115 -14 -25 -2 -52
-6 -60 -9 -8 -3 -22 -5 -30 -5 -13 0 -64 -5 -190 -17 -19 -2 -35 -4 -35 -5 0
-1 -22 -3 -50 -5 -27 -1 -50 -3 -50 -4 0 -2 -34 -5 -75 -7 -41 -3 -84 -7 -95
-9 -11 -2 -48 -4 -83 -4 -45 -1 -61 -4 -56 -13 4 -7 3 -8 -4 -4 -21 12 -51 15
-58 5 -4 -6 -11 -6 -20 2 -8 6 -14 7 -14 2 0 -5 -33 -9 -72 -10 -40 -1 -93 -5
-118 -10 -25 -4 -120 -8 -212 -8 -93 0 -168 -2 -168 -5 0 -13 -972 2 -1035 17
-37 8 -134 8 -142 -1 -11 -11 13 -27 46 -31 18 -2 64 -6 102 -7 38 -2 69 -5
69 -8 0 -3 30 -5 68 -5 37 0 113 -2 170 -5 56 -3 102 -2 102 2 0 4 11 3 24 -1
31 -12 528 -11 543 1 6 5 14 5 16 1 3 -5 25 -7 49 -5 52 4 52 4 108 3 93 -1
170 4 170 12 0 4 8 4 17 -1 10 -5 32 -8 48 -6 45 5 142 13 211 17 34 2 65 7
71 10 5 3 15 2 23 -3 8 -5 21 -5 29 -1 9 4 40 7 69 6 29 -1 55 1 57 5 2 3 28
5 57 5 29 -1 61 2 71 7 12 6 17 5 17 -4 0 -8 3 -9 8 -3 7 10 20 12 110 16 29
1 55 6 58 10 2 4 19 5 38 2 18 -3 43 0 54 6 14 7 23 8 27 1 4 -6 11 -7 17 -3
7 3 30 7 52 9 23 1 48 4 56 8 8 3 45 7 81 9 36 2 70 6 75 9 5 3 24 5 42 3 18
-1 35 1 37 5 2 4 20 6 40 5 19 -1 35 1 35 5 0 6 8 7 88 10 23 2 42 6 42 9 0 4
18 6 40 5 22 -1 40 3 40 8 0 6 6 5 15 -2 10 -9 15 -9 15 -1 0 6 3 10 8 9 7 -2
81 7 152 19 19 3 46 7 60 8 14 2 25 4 25 5 0 3 38 10 72 13 18 2 35 6 38 9 3
3 19 4 35 2 17 -2 30 0 30 5 0 5 8 8 17 7 9 -2 55 5 102 15 47 9 89 15 94 12
4 -2 14 0 20 6 7 5 22 10 32 10 11 0 38 4 59 10 22 5 44 8 48 5 4 -3 8 -1 8 3
0 5 10 10 23 10 12 1 29 3 37 6 28 7 115 21 123 19 4 -1 7 2 7 7 0 5 15 8 34
7 19 -1 32 2 30 6 -3 5 6 8 20 8 13 0 27 6 29 13 4 9 6 9 6 0 1 -9 8 -10 25
-3 13 5 27 6 30 3 3 -4 6 -1 6 6 0 9 9 12 25 9 14 -3 25 -1 25 4 0 6 6 8 14 5
8 -3 17 -3 20 1 4 3 12 7 19 8 29 5 65 14 97 24 36 11 84 21 110 24 8 0 17 4
20 8 3 4 19 9 35 12 17 2 30 5 30 6 0 1 7 3 15 5 8 2 49 13 90 25 41 12 82 23
90 25 8 2 17 4 20 5 3 1 8 2 13 1 4 0 7 3 7 9 0 5 6 7 14 4 8 -3 17 0 21 5 3
6 11 9 16 5 5 -3 16 -1 23 5 7 6 23 13 37 15 13 3 26 5 29 6 3 2 8 2 13 1 4 0
7 4 7 10 0 5 5 7 10 4 6 -4 16 -3 23 2 11 8 91 36 109 37 3 1 10 4 14 9 4 4
16 7 26 7 10 0 18 4 18 10 0 5 7 7 15 4 8 -4 15 -1 15 5 0 7 6 11 13 10 13 -2
31 4 82 26 84 37 145 62 155 63 15 1 128 63 136 74 6 7 10 20 9 28 -1 8 -3 21
-3 28 -2 14 -48 16 -57 2z"/>
</g>
</svg>
